<?xml version="1.0" encoding="utf-8"?>
<svg viewBox="81.429 29.909 278.053 111.099" width="400px" height="300px" xmlns="http://www.w3.org/2000/svg">
  <text style="white-space: pre; fill: rgb(51, 51, 51); font-family: Arial, sans-serif; font-size: 23.1px;" x="438.193" y="230.243"> </text>
  <g transform="matrix(1, 0, 0, 1, 86.190666, 36.6917)" style="fill:#FFFFFF;">
    <rect x="0" y="0" width="4" height="100"/>
    <rect x="6" y="0" width="2" height="100"/>
    <rect x="12" y="0" width="2" height="100"/>
    <rect x="22" y="0" width="2" height="100"/>
    <rect x="30" y="0" width="4" height="100"/>
    <rect x="40" y="0" width="2" height="100"/>
    <rect x="44" y="0" width="2" height="100"/>
    <rect x="52" y="0" width="8" height="100"/>
    <rect x="62" y="0" width="2" height="100"/>
    <rect x="66" y="0" width="4" height="100"/>
    <rect x="74" y="0" width="2" height="100"/>
    <rect x="78" y="0" width="2" height="100"/>
    <rect x="88" y="0" width="4" height="100"/>
    <rect x="100" y="0" width="2" height="100"/>
    <rect x="106" y="0" width="2" height="100"/>
    <rect x="110" y="0" width="2" height="100"/>
    <rect x="120" y="0" width="4" height="100"/>
    <rect x="126" y="0" width="2" height="100"/>
    <rect x="132" y="0" width="2" height="100"/>
    <rect x="136" y="0" width="4" height="100"/>
    <rect x="144" y="0" width="2" height="100"/>
    <rect x="154" y="0" width="2" height="100"/>
    <rect x="160" y="0" width="4" height="100"/>
    <rect x="168" y="0" width="6" height="100"/>
    <rect x="176" y="0" width="2" height="100"/>
    <rect x="186" y="0" width="4" height="100"/>
    <rect x="192" y="0" width="2" height="100"/>
    <rect x="198" y="0" width="2" height="100"/>
    <rect x="206" y="0" width="8" height="100"/>
    <rect x="216" y="0" width="2" height="100"/>
    <rect x="220" y="0" width="2" height="100"/>
    <rect x="226" y="0" width="4" height="100"/>
    <rect x="232" y="0" width="6" height="100"/>
    <rect x="242" y="0" width="4" height="100"/>
    <rect x="252" y="0" width="6" height="100"/>
    <rect x="260" y="0" width="2" height="100"/>
    <rect x="264" y="0" width="4" height="100"/>
    <text style="font: 20px monospace" text-anchor="middle" x="134" y="122">Folkie.io</text>
  </g>
</svg>